<svg xmlns="http://www.w3.org/2000/svg" width="1200" height="680" viewBox="0 0 1200 680">
  <rect width="1200" height="680" fill="#0a0a0a"/>
  <rect x="50" y="48" width="1100" height="584" rx="18" fill="#101010" stroke="#232323"/>
  <rect x="50" y="48" width="1100" height="58" rx="18" fill="#141414"/>
  <circle cx="82" cy="77" r="8" fill="#ff5c5c"/>
  <circle cx="112" cy="77" r="8" fill="#303030"/>
  <circle cx="142" cy="77" r="8" fill="#303030"/>
  <text x="190" y="84" fill="#d9d9d9" font-size="22" font-family="Inter, Arial, sans-serif">SOC Monitoring Dashboard · Wazuh SIEM</text>

  <polyline points="120,470 250,430 370,450 500,330 620,360 740,280 860,290 980,220" fill="none" stroke="#ff5c5c" stroke-width="7" stroke-linecap="round" stroke-linejoin="round"/>
  <line x1="120" y1="510" x2="1020" y2="510" stroke="#252525" stroke-width="2"/>
  <rect x="120" y="540" width="180" height="20" rx="10" fill="#1f1f1f"/>
  <rect x="320" y="540" width="210" height="20" rx="10" fill="#191919"/>
  <rect x="550" y="540" width="160" height="20" rx="10" fill="#191919"/>

  <g transform="translate(870,320)">
    <path d="M70 0 140 25v56c0 50-30 85-70 103C30 166 0 131 0 81V25Z" fill="#0f0f0f" stroke="#ff5c5c" stroke-width="5"/>
    <path d="m44 84 20 20 34-40" fill="none" stroke="#ff5c5c" stroke-width="7" stroke-linecap="round" stroke-linejoin="round"/>
  </g>
</svg>
